<?xml version="1.0" encoding="UTF-8" standalone="no"?>
<!DOCTYPE svg PUBLIC "-//W3C//DTD SVG 1.1//EN"
 "http://www.w3.org/Graphics/SVG/1.1/DTD/svg11.dtd">
<!-- Generated by graphviz version 15.0.0 (20260523.1842)
 -->
<!-- Title: backbone_comparison Pages: 1 -->
<svg width="823pt" height="398pt"
 viewBox="0.00 0.00 823.00 398.00" xmlns="http://www.w3.org/2000/svg" xmlns:xlink="http://www.w3.org/1999/xlink">
<g id="graph0" class="graph" transform="scale(1 1) rotate(0) translate(4 394)">
<title>backbone_comparison</title>
<polygon fill="white" stroke="none" points="-4,4 -4,-394 819.25,-394 819.25,4 -4,4"/>
<!-- top -->
<g id="node1" class="node">
<title>top</title>
<path fill="#eef2f7" stroke="#2b2d42" stroke-width="1.3" d="M551.25,-390C551.25,-390 309.5,-390 309.5,-390 303.5,-390 297.5,-384 297.5,-378 297.5,-378 297.5,-366 297.5,-366 297.5,-360 303.5,-354 309.5,-354 309.5,-354 551.25,-354 551.25,-354 557.25,-354 563.25,-360 563.25,-366 563.25,-366 563.25,-378 563.25,-378 563.25,-384 557.25,-390 551.25,-390"/>
<text xml:space="preserve" text-anchor="middle" x="430.38" y="-367.15" font-family="Helvetica,Arial,sans-serif" font-size="13.00" fill="#111111">Same input data and same fixed data split</text>
</g>
<!-- simple_cnn -->
<g id="node2" class="node">
<title>simple_cnn</title>
<path fill="#f6e8d9" stroke="#2b2d42" stroke-width="1.3" d="M250.75,-306.5C250.75,-306.5 12,-306.5 12,-306.5 6,-306.5 0,-300.5 0,-294.5 0,-294.5 0,-265.5 0,-265.5 0,-259.5 6,-253.5 12,-253.5 12,-253.5 250.75,-253.5 250.75,-253.5 256.75,-253.5 262.75,-259.5 262.75,-265.5 262.75,-265.5 262.75,-294.5 262.75,-294.5 262.75,-300.5 256.75,-306.5 250.75,-306.5"/>
<text xml:space="preserve" text-anchor="middle" x="131.38" y="-290.15" font-family="Helvetica,Arial,sans-serif" font-size="13.00" fill="#111111">SimpleCNN</text>
<text xml:space="preserve" text-anchor="middle" x="131.38" y="-275.15" font-family="Helvetica,Arial,sans-serif" font-size="13.00" fill="#111111">Compact non&#45;residual baseline</text>
<text xml:space="preserve" text-anchor="middle" x="131.38" y="-260.15" font-family="Helvetica,Arial,sans-serif" font-size="13.00" fill="#111111">(efficiency/accuracy trade&#45;off vs. ResNet)</text>
</g>
<!-- top&#45;&gt;simple_cnn -->
<g id="edge1" class="edge">
<title>top&#45;&gt;simple_cnn</title>
<path fill="none" stroke="#2b2d42" stroke-width="1.2" d="M372.01,-353.43C331.5,-341.24 276.55,-324.7 229.38,-310.5"/>
<polygon fill="#2b2d42" stroke="#2b2d42" stroke-width="1.2" points="230.52,-307.19 219.94,-307.66 228.51,-313.89 230.52,-307.19"/>
</g>
<!-- plain_deep18 -->
<g id="node3" class="node">
<title>plain_deep18</title>
<path fill="#e8dff5" stroke="#2b2d42" stroke-width="1.3" d="M549.75,-314C549.75,-314 311,-314 311,-314 305,-314 299,-308 299,-302 299,-302 299,-258 299,-258 299,-252 305,-246 311,-246 311,-246 549.75,-246 549.75,-246 555.75,-246 561.75,-252 561.75,-258 561.75,-258 561.75,-302 561.75,-302 561.75,-308 555.75,-314 549.75,-314"/>
<text xml:space="preserve" text-anchor="middle" x="430.38" y="-297.65" font-family="Helvetica,Arial,sans-serif" font-size="13.00" fill="#111111">PlainDeep18NoSkip</text>
<text xml:space="preserve" text-anchor="middle" x="430.38" y="-282.65" font-family="Helvetica,Arial,sans-serif" font-size="13.00" fill="#111111">ResNet&#45;matched depth and stage widths,</text>
<text xml:space="preserve" text-anchor="middle" x="430.38" y="-267.65" font-family="Helvetica,Arial,sans-serif" font-size="13.00" fill="#111111">residual additions removed</text>
<text xml:space="preserve" text-anchor="middle" x="430.38" y="-252.65" font-family="Helvetica,Arial,sans-serif" font-size="13.00" fill="#111111">(controlled skip&#45;connection ablation)</text>
</g>
<!-- top&#45;&gt;plain_deep18 -->
<g id="edge3" class="edge">
<title>top&#45;&gt;plain_deep18</title>
<path fill="none" stroke="#2b2d42" stroke-width="1.2" d="M430.38,-353.65C430.38,-345.64 430.38,-335.73 430.38,-325.84"/>
<polygon fill="#2b2d42" stroke="#2b2d42" stroke-width="1.2" points="433.88,-326.15 430.38,-316.15 426.88,-326.15 433.88,-326.15"/>
</g>
<!-- custom_resnet18 -->
<g id="node4" class="node">
<title>custom_resnet18</title>
<path fill="#dbe9f6" stroke="#2b2d42" stroke-width="1.3" d="M803.25,-306.5C803.25,-306.5 609.5,-306.5 609.5,-306.5 603.5,-306.5 597.5,-300.5 597.5,-294.5 597.5,-294.5 597.5,-265.5 597.5,-265.5 597.5,-259.5 603.5,-253.5 609.5,-253.5 609.5,-253.5 803.25,-253.5 803.25,-253.5 809.25,-253.5 815.25,-259.5 815.25,-265.5 815.25,-265.5 815.25,-294.5 815.25,-294.5 815.25,-300.5 809.25,-306.5 803.25,-306.5"/>
<text xml:space="preserve" text-anchor="middle" x="706.38" y="-290.15" font-family="Helvetica,Arial,sans-serif" font-size="13.00" fill="#111111">Custom ResNet&#45;18</text>
<text xml:space="preserve" text-anchor="middle" x="706.38" y="-275.15" font-family="Helvetica,Arial,sans-serif" font-size="13.00" fill="#111111">Main residual backbone</text>
<text xml:space="preserve" text-anchor="middle" x="706.38" y="-260.15" font-family="Helvetica,Arial,sans-serif" font-size="13.00" fill="#111111">(the project&#39;s deployed backbone)</text>
</g>
<!-- top&#45;&gt;custom_resnet18 -->
<g id="edge5" class="edge">
<title>top&#45;&gt;custom_resnet18</title>
<path fill="none" stroke="#2b2d42" stroke-width="1.2" d="M484.25,-353.43C521.41,-341.32 571.73,-324.91 615.08,-310.77"/>
<polygon fill="#2b2d42" stroke="#2b2d42" stroke-width="1.2" points="616.08,-314.13 624.5,-307.7 613.91,-307.47 616.08,-314.13"/>
</g>
<!-- bottom -->
<g id="node5" class="node">
<title>bottom</title>
<path fill="#eef2f7" stroke="#2b2d42" stroke-width="1.3" d="M502.12,-206C502.12,-206 358.62,-206 358.62,-206 352.62,-206 346.62,-200 346.62,-194 346.62,-194 346.62,-120 346.62,-120 346.62,-114 352.62,-108 358.62,-108 358.62,-108 502.12,-108 502.12,-108 508.12,-108 514.12,-114 514.12,-120 514.12,-120 514.12,-194 514.12,-194 514.12,-200 508.12,-206 502.12,-206"/>
<text xml:space="preserve" text-anchor="middle" x="430.38" y="-189.65" font-family="Helvetica,Arial,sans-serif" font-size="13.00" fill="#111111">Same adapters</text>
<text xml:space="preserve" text-anchor="middle" x="430.38" y="-174.65" font-family="Helvetica,Arial,sans-serif" font-size="13.00" fill="#111111">Same task heads</text>
<text xml:space="preserve" text-anchor="middle" x="430.38" y="-159.65" font-family="Helvetica,Arial,sans-serif" font-size="13.00" fill="#111111">Same losses</text>
<text xml:space="preserve" text-anchor="middle" x="430.38" y="-144.65" font-family="Helvetica,Arial,sans-serif" font-size="13.00" fill="#111111">Same data split</text>
<text xml:space="preserve" text-anchor="middle" x="430.38" y="-129.65" font-family="Helvetica,Arial,sans-serif" font-size="13.00" fill="#111111">Same training protocol</text>
<text xml:space="preserve" text-anchor="middle" x="430.38" y="-114.65" font-family="Helvetica,Arial,sans-serif" font-size="13.00" fill="#111111">Same evaluation protocol</text>
</g>
<!-- simple_cnn&#45;&gt;bottom -->
<g id="edge2" class="edge">
<title>simple_cnn&#45;&gt;bottom</title>
<path fill="none" stroke="#2b2d42" stroke-width="1.2" d="M195.89,-252.89C236.57,-236.43 289.84,-214.87 335.31,-196.47"/>
<polygon fill="#2b2d42" stroke="#2b2d42" stroke-width="1.2" points="336.45,-199.78 344.41,-192.79 333.83,-193.3 336.45,-199.78"/>
</g>
<!-- plain_deep18&#45;&gt;bottom -->
<g id="edge4" class="edge">
<title>plain_deep18&#45;&gt;bottom</title>
<path fill="none" stroke="#2b2d42" stroke-width="1.2" d="M430.38,-245.62C430.38,-236.96 430.38,-227.38 430.38,-217.81"/>
<polygon fill="#2b2d42" stroke="#2b2d42" stroke-width="1.2" points="433.88,-218.04 430.38,-208.04 426.88,-218.04 433.88,-218.04"/>
</g>
<!-- custom_resnet18&#45;&gt;bottom -->
<g id="edge6" class="edge">
<title>custom_resnet18&#45;&gt;bottom</title>
<path fill="none" stroke="#2b2d42" stroke-width="1.2" d="M646.83,-252.89C611.4,-237.36 565.66,-217.31 525.35,-199.64"/>
<polygon fill="#2b2d42" stroke="#2b2d42" stroke-width="1.2" points="526.91,-196.5 516.35,-195.69 524.1,-202.91 526.91,-196.5"/>
</g>
<!-- note -->
<g id="node6" class="node">
<title>note</title>
<polygon fill="#fffbe6" stroke="#8a8a8a" stroke-width="1.3" points="649.5,-68 205.25,-68 205.25,0 655.5,0 655.5,-62 649.5,-68"/>
<polyline fill="none" stroke="#8a8a8a" stroke-width="1.3" points="649.5,-68 649.5,-62"/>
<polyline fill="none" stroke="#8a8a8a" stroke-width="1.3" points="655.5,-62 649.5,-62"/>
<text xml:space="preserve" text-anchor="middle" x="430.38" y="-54.5" font-family="Helvetica,Arial,sans-serif" font-size="10.00" fill="#111111">SimpleCNN differs from Custom ResNet&#45;18 in BOTH depth and channel width, so that pairing</text>
<text xml:space="preserve" text-anchor="middle" x="430.38" y="-42.5" font-family="Helvetica,Arial,sans-serif" font-size="10.00" fill="#111111">alone does not isolate residual (skip) connections &#45;&#45; it is a compact&#45;vs&#45;full efficiency</text>
<text xml:space="preserve" text-anchor="middle" x="430.38" y="-30.5" font-family="Helvetica,Arial,sans-serif" font-size="10.00" fill="#111111">comparison. PlainDeep18NoSkip copies Custom ResNet&#45;18&#39;s stem, stage widths, and block layout</text>
<text xml:space="preserve" text-anchor="middle" x="430.38" y="-18.5" font-family="Helvetica,Arial,sans-serif" font-size="10.00" fill="#111111">exactly, with only the residual additions removed &#45;&#45; that pairing is the controlled ablation</text>
<text xml:space="preserve" text-anchor="middle" x="430.38" y="-6.5" font-family="Helvetica,Arial,sans-serif" font-size="10.00" fill="#111111">of skip connections specifically. See docs/backbone_comparison.md.</text>
</g>
<!-- bottom&#45;&gt;note -->
</g>
</svg>
