<?xml version="1.0" encoding="UTF-8" standalone="no"?>
<!DOCTYPE svg PUBLIC "-//W3C//DTD SVG 1.1//EN"
 "http://www.w3.org/Graphics/SVG/1.1/DTD/svg11.dtd">
<!-- Generated by graphviz version 15.0.0 (20260523.1842)
 -->
<!-- Title: multitask_architecture Pages: 1 -->
<svg width="616pt" height="931pt"
 viewBox="0.00 0.00 616.00 931.00" xmlns="http://www.w3.org/2000/svg" xmlns:xlink="http://www.w3.org/1999/xlink">
<g id="graph0" class="graph" transform="scale(1 1) rotate(0) translate(4 927)">
<title>multitask_architecture</title>
<polygon fill="white" stroke="none" points="-4,4 -4,-927 612,-927 612,4 -4,4"/>
<g id="clust1" class="cluster">
<title>cluster_gender</title>
<polygon fill="white" stroke="#2e6f40" stroke-dasharray="5,2" points="8,-96.5 8,-668 302,-668 302,-96.5 8,-96.5"/>
<text xml:space="preserve" text-anchor="middle" x="122.5" y="-652.6" font-family="Helvetica,Arial,sans-serif" font-size="12.00">Dataset gender&#45;label task (task&#45;specific)</text>
</g>
<g id="clust2" class="cluster">
<title>cluster_age</title>
<polygon fill="white" stroke="#b5651d" stroke-dasharray="5,2" points="310,-89 310,-397.75 600,-397.75 600,-89 310,-89"/>
<text xml:space="preserve" text-anchor="middle" x="379.5" y="-382.35" font-family="Helvetica,Arial,sans-serif" font-size="12.00">Age task (task&#45;specific)</text>
</g>
<!-- input -->
<g id="node1" class="node">
<title>input</title>
<path fill="#eef2f7" stroke="#2b2d42" stroke-width="1.3" d="M345.5,-923C345.5,-923 194.5,-923 194.5,-923 188.5,-923 182.5,-917 182.5,-911 182.5,-911 182.5,-897 182.5,-897 182.5,-891 188.5,-885 194.5,-885 194.5,-885 345.5,-885 345.5,-885 351.5,-885 357.5,-891 357.5,-897 357.5,-897 357.5,-911 357.5,-911 357.5,-917 351.5,-923 345.5,-923"/>
<text xml:space="preserve" text-anchor="middle" x="270" y="-906.65" font-family="Helvetica,Arial,sans-serif" font-size="13.00" fill="#111111">Input face image</text>
<text xml:space="preserve" text-anchor="middle" x="270" y="-891.65" font-family="Helvetica,Arial,sans-serif" font-size="13.00" fill="#111111">(RGB, resized to 128x128)</text>
</g>
<!-- backbone -->
<g id="node2" class="node">
<title>backbone</title>
<path fill="#dbe9f6" stroke="#2b2d42" stroke-width="1.3" d="M399.12,-844C399.12,-844 140.88,-844 140.88,-844 134.88,-844 128.88,-838 128.88,-832 128.88,-832 128.88,-788 128.88,-788 128.88,-782 134.88,-776 140.88,-776 140.88,-776 399.12,-776 399.12,-776 405.12,-776 411.12,-782 411.12,-788 411.12,-788 411.12,-832 411.12,-832 411.12,-838 405.12,-844 399.12,-844"/>
<text xml:space="preserve" text-anchor="middle" x="270" y="-827.65" font-family="Helvetica,Arial,sans-serif" font-size="13.00" fill="#111111">Custom ResNet&#45;18 backbone</text>
<text xml:space="preserve" text-anchor="middle" x="270" y="-812.65" font-family="Helvetica,Arial,sans-serif" font-size="13.00" fill="#111111">(manually implemented, no torchvision/timm,</text>
<text xml:space="preserve" text-anchor="middle" x="270" y="-797.65" font-family="Helvetica,Arial,sans-serif" font-size="13.00" fill="#111111">no pretrained weights)</text>
<text xml:space="preserve" text-anchor="middle" x="270" y="-782.65" font-family="Helvetica,Arial,sans-serif" font-size="13.00" fill="#111111">BasicBlock residual blocks, layout [2, 2, 2, 2]</text>
</g>
<!-- input&#45;&gt;backbone -->
<g id="edge1" class="edge">
<title>input&#45;&gt;backbone</title>
<path fill="none" stroke="#2b2d42" stroke-width="1.2" d="M270,-884.38C270,-876.16 270,-866.09 270,-856.08"/>
<polygon fill="#2b2d42" stroke="#2b2d42" stroke-width="1.2" points="273.5,-856.29 270,-846.29 266.5,-856.29 273.5,-856.29"/>
</g>
<!-- shared_z -->
<g id="node3" class="node">
<title>shared_z</title>
<path fill="#c9d6e3" stroke="#2b2d42" stroke-width="2" d="M327.88,-735C327.88,-735 212.12,-735 212.12,-735 206.12,-735 200.12,-729 200.12,-723 200.12,-723 200.12,-709 200.12,-709 200.12,-703 206.12,-697 212.12,-697 212.12,-697 327.88,-697 327.88,-697 333.88,-697 339.88,-703 339.88,-709 339.88,-709 339.88,-723 339.88,-723 339.88,-729 333.88,-735 327.88,-735"/>
<text xml:space="preserve" text-anchor="middle" x="270" y="-718.65" font-family="Helvetica,Arial,sans-serif" font-size="13.00" fill="#111111">Shared embedding z</text>
<text xml:space="preserve" text-anchor="middle" x="270" y="-703.65" font-family="Helvetica,Arial,sans-serif" font-size="13.00" fill="#111111">(512&#45;dim)</text>
</g>
<!-- backbone&#45;&gt;shared_z -->
<g id="edge2" class="edge">
<title>backbone&#45;&gt;shared_z</title>
<path fill="none" stroke="#2b2d42" stroke-width="1.2" d="M270,-775.53C270,-766.34 270,-756.44 270,-747.43"/>
<polygon fill="#2b2d42" stroke="#2b2d42" stroke-width="1.2" points="273.5,-747.69 270,-737.69 266.5,-747.69 273.5,-747.69"/>
</g>
<!-- age_adapter -->
<g id="node4" class="node">
<title>age_adapter</title>
<path fill="#fdebd3" stroke="#2b2d42" stroke-width="1.3" d="M538.62,-367.5C538.62,-367.5 343.38,-367.5 343.38,-367.5 337.38,-367.5 331.38,-361.5 331.38,-355.5 331.38,-355.5 331.38,-326.5 331.38,-326.5 331.38,-320.5 337.38,-314.5 343.38,-314.5 343.38,-314.5 538.62,-314.5 538.62,-314.5 544.62,-314.5 550.62,-320.5 550.62,-326.5 550.62,-326.5 550.62,-355.5 550.62,-355.5 550.62,-361.5 544.62,-367.5 538.62,-367.5"/>
<text xml:space="preserve" text-anchor="middle" x="441" y="-351.15" font-family="Helvetica,Arial,sans-serif" font-size="13.00" fill="#111111">Age Adapter &#45;&#45; residual bottleneck</text>
<text xml:space="preserve" text-anchor="middle" x="441" y="-336.15" font-family="Helvetica,Arial,sans-serif" font-size="13.00" fill="#111111">z + Up(Dropout(GELU(Down(z))))</text>
<text xml:space="preserve" text-anchor="middle" x="441" y="-321.15" font-family="Helvetica,Arial,sans-serif" font-size="13.00" fill="#111111">512 &#45;&gt; 256 &#45;&gt; 512</text>
</g>
<!-- shared_z&#45;&gt;age_adapter -->
<g id="edge3" class="edge">
<title>shared_z&#45;&gt;age_adapter</title>
<path fill="none" stroke="#2b2d42" stroke-width="1.2" d="M315.45,-696.04C347.6,-679.26 385,-651.34 385,-612.25 385,-612.25 385,-612.25 385,-444.75 385,-420.18 397.49,-395.9 410.68,-377.11"/>
<polygon fill="#2b2d42" stroke="#2b2d42" stroke-width="1.2" points="413.35,-379.39 416.49,-369.28 407.72,-375.22 413.35,-379.39"/>
</g>
<!-- gender_adapter -->
<g id="node5" class="node">
<title>gender_adapter</title>
<path fill="#e2f0d9" stroke="#2b2d42" stroke-width="1.3" d="M281.5,-637.75C281.5,-637.75 28.5,-637.75 28.5,-637.75 22.5,-637.75 16.5,-631.75 16.5,-625.75 16.5,-625.75 16.5,-596.75 16.5,-596.75 16.5,-590.75 22.5,-584.75 28.5,-584.75 28.5,-584.75 281.5,-584.75 281.5,-584.75 287.5,-584.75 293.5,-590.75 293.5,-596.75 293.5,-596.75 293.5,-625.75 293.5,-625.75 293.5,-631.75 287.5,-637.75 281.5,-637.75"/>
<text xml:space="preserve" text-anchor="middle" x="155" y="-621.4" font-family="Helvetica,Arial,sans-serif" font-size="13.00" fill="#111111">Gender&#45;Label Adapter &#45;&#45; residual bottleneck</text>
<text xml:space="preserve" text-anchor="middle" x="155" y="-606.4" font-family="Helvetica,Arial,sans-serif" font-size="13.00" fill="#111111">z + Up(Dropout(GELU(Down(z))))</text>
<text xml:space="preserve" text-anchor="middle" x="155" y="-591.4" font-family="Helvetica,Arial,sans-serif" font-size="13.00" fill="#111111">512 &#45;&gt; 256 &#45;&gt; 512</text>
</g>
<!-- shared_z&#45;&gt;gender_adapter -->
<g id="edge4" class="edge">
<title>shared_z&#45;&gt;gender_adapter</title>
<path fill="none" stroke="#2b2d42" stroke-width="1.2" d="M248.91,-696.15C233.23,-682.15 211.43,-662.67 192.78,-646"/>
<polygon fill="#2b2d42" stroke="#2b2d42" stroke-width="1.2" points="195.33,-643.59 185.54,-639.54 190.67,-648.81 195.33,-643.59"/>
</g>
<!-- age_head -->
<g id="node12" class="node">
<title>age_head</title>
<path fill="#fdebd3" stroke="#2b2d42" stroke-width="1.3" d="M521.75,-257.5C521.75,-257.5 378.25,-257.5 378.25,-257.5 372.25,-257.5 366.25,-251.5 366.25,-245.5 366.25,-245.5 366.25,-231.5 366.25,-231.5 366.25,-225.5 372.25,-219.5 378.25,-219.5 378.25,-219.5 521.75,-219.5 521.75,-219.5 527.75,-219.5 533.75,-225.5 533.75,-231.5 533.75,-231.5 533.75,-245.5 533.75,-245.5 533.75,-251.5 527.75,-257.5 521.75,-257.5"/>
<text xml:space="preserve" text-anchor="middle" x="450" y="-241.15" font-family="Helvetica,Arial,sans-serif" font-size="13.00" fill="#111111">Age Quantile Head</text>
<text xml:space="preserve" text-anchor="middle" x="450" y="-226.15" font-family="Helvetica,Arial,sans-serif" font-size="13.00" fill="#111111">(hidden 128, dropout 0.1)</text>
</g>
<!-- age_adapter&#45;&gt;age_head -->
<g id="edge11" class="edge">
<title>age_adapter&#45;&gt;age_head</title>
<path fill="none" stroke="#2b2d42" stroke-width="1.2" d="M443.34,-313.86C444.56,-300.27 446.05,-283.61 447.31,-269.5"/>
<polygon fill="#2b2d42" stroke="#2b2d42" stroke-width="1.2" points="450.78,-269.98 448.19,-259.71 443.81,-269.36 450.78,-269.98"/>
</g>
<!-- gender_head -->
<g id="node6" class="node">
<title>gender_head</title>
<path fill="#e2f0d9" stroke="#2b2d42" stroke-width="1.3" d="M258.62,-543.75C258.62,-543.75 51.38,-543.75 51.38,-543.75 45.38,-543.75 39.38,-537.75 39.38,-531.75 39.38,-531.75 39.38,-517.75 39.38,-517.75 39.38,-511.75 45.38,-505.75 51.38,-505.75 51.38,-505.75 258.62,-505.75 258.62,-505.75 264.62,-505.75 270.62,-511.75 270.62,-517.75 270.62,-517.75 270.62,-531.75 270.62,-531.75 270.62,-537.75 264.62,-543.75 258.62,-543.75"/>
<text xml:space="preserve" text-anchor="middle" x="155" y="-527.4" font-family="Helvetica,Arial,sans-serif" font-size="13.00" fill="#111111">Classification Head</text>
<text xml:space="preserve" text-anchor="middle" x="155" y="-512.4" font-family="Helvetica,Arial,sans-serif" font-size="13.00" fill="#111111">(hidden 128, dropout 0.1, 2 classes)</text>
</g>
<!-- gender_adapter&#45;&gt;gender_head -->
<g id="edge5" class="edge">
<title>gender_adapter&#45;&gt;gender_head</title>
<path fill="none" stroke="#2b2d42" stroke-width="1.2" d="M155,-584.44C155,-575.39 155,-565.16 155,-555.8"/>
<polygon fill="#2b2d42" stroke="#2b2d42" stroke-width="1.2" points="158.5,-555.99 155,-545.99 151.5,-555.99 158.5,-555.99"/>
</g>
<!-- gender_logits -->
<g id="node7" class="node">
<title>gender_logits</title>
<path fill="#e2f0d9" stroke="#2b2d42" stroke-width="1.3" d="M273.62,-464.75C273.62,-464.75 36.38,-464.75 36.38,-464.75 30.38,-464.75 24.38,-458.75 24.38,-452.75 24.38,-452.75 24.38,-438.75 24.38,-438.75 24.38,-432.75 30.38,-426.75 36.38,-426.75 36.38,-426.75 273.62,-426.75 273.62,-426.75 279.62,-426.75 285.62,-432.75 285.62,-438.75 285.62,-438.75 285.62,-452.75 285.62,-452.75 285.62,-458.75 279.62,-464.75 273.62,-464.75"/>
<text xml:space="preserve" text-anchor="middle" x="155" y="-448.4" font-family="Helvetica,Arial,sans-serif" font-size="13.00" fill="#111111">Logits (2)</text>
<text xml:space="preserve" text-anchor="middle" x="155" y="-433.4" font-family="Helvetica,Arial,sans-serif" font-size="13.00" fill="#111111">(raw, used for cross&#45;entropy at train time)</text>
</g>
<!-- gender_head&#45;&gt;gender_logits -->
<g id="edge6" class="edge">
<title>gender_head&#45;&gt;gender_logits</title>
<path fill="none" stroke="#2b2d42" stroke-width="1.2" d="M155,-505.11C155,-496.6 155,-486.3 155,-476.74"/>
<polygon fill="#2b2d42" stroke="#2b2d42" stroke-width="1.2" points="158.5,-477.03 155,-467.03 151.5,-477.03 158.5,-477.03"/>
</g>
<!-- softmax -->
<g id="node8" class="node">
<title>softmax</title>
<path fill="#eef7ea" stroke="#2b2d42" stroke-width="1.3" d="M230.12,-360C230.12,-360 79.88,-360 79.88,-360 73.88,-360 67.88,-354 67.88,-348 67.88,-348 67.88,-334 67.88,-334 67.88,-328 73.88,-322 79.88,-322 79.88,-322 230.12,-322 230.12,-322 236.12,-322 242.12,-328 242.12,-334 242.12,-334 242.12,-348 242.12,-348 242.12,-354 236.12,-360 230.12,-360"/>
<text xml:space="preserve" text-anchor="middle" x="155" y="-343.65" font-family="Helvetica,Arial,sans-serif" font-size="13.00" fill="#111111">Softmax</text>
<text xml:space="preserve" text-anchor="middle" x="155" y="-328.65" font-family="Helvetica,Arial,sans-serif" font-size="13.00" fill="#111111">(inference/evaluation only)</text>
</g>
<!-- gender_logits&#45;&gt;softmax -->
<g id="edge7" class="edge">
<title>gender_logits&#45;&gt;softmax</title>
<path fill="none" stroke="#2b2d42" stroke-width="1.2" d="M155,-426.38C155,-411.35 155,-389.79 155,-372.22"/>
<polygon fill="#2b2d42" stroke="#2b2d42" stroke-width="1.2" points="158.5,-372.37 155,-362.37 151.5,-372.37 158.5,-372.37"/>
</g>
<!-- threshold -->
<g id="node9" class="node">
<title>threshold</title>
<path fill="#f2f2f2" stroke="#2b2d42" stroke-width="1.3" d="M143.85,-269.07C143.85,-269.07 78.15,-242.93 78.15,-242.93 72.58,-240.72 72.58,-236.28 78.15,-234.07 78.15,-234.07 143.85,-207.93 143.85,-207.93 149.42,-205.72 160.58,-205.72 166.15,-207.93 166.15,-207.93 231.85,-234.07 231.85,-234.07 237.42,-236.28 237.42,-240.72 231.85,-242.93 231.85,-242.93 166.15,-269.07 166.15,-269.07 160.58,-271.28 149.42,-271.28 143.85,-269.07"/>
<text xml:space="preserve" text-anchor="middle" x="155" y="-241.55" font-family="Helvetica,Arial,sans-serif" font-size="11.00" fill="#111111">max probability</text>
<text xml:space="preserve" text-anchor="middle" x="155" y="-228.05" font-family="Helvetica,Arial,sans-serif" font-size="11.00" fill="#111111">&gt;= 0.80 ?</text>
</g>
<!-- softmax&#45;&gt;threshold -->
<g id="edge8" class="edge">
<title>softmax&#45;&gt;threshold</title>
<path fill="none" stroke="#2b2d42" stroke-width="1.2" d="M155,-321.57C155,-311.41 155,-298.32 155,-285.58"/>
<polygon fill="#2b2d42" stroke="#2b2d42" stroke-width="1.2" points="158.5,-285.9 155,-275.9 151.5,-285.9 158.5,-285.9"/>
</g>
<!-- accepted -->
<g id="node10" class="node">
<title>accepted</title>
<path fill="#d7ecd1" stroke="#2b2d42" stroke-width="1.3" d="M166.12,-142.5C166.12,-142.5 69.88,-142.5 69.88,-142.5 63.88,-142.5 57.88,-136.5 57.88,-130.5 57.88,-130.5 57.88,-116.5 57.88,-116.5 57.88,-110.5 63.88,-104.5 69.88,-104.5 69.88,-104.5 166.12,-104.5 166.12,-104.5 172.12,-104.5 178.12,-110.5 178.12,-116.5 178.12,-116.5 178.12,-130.5 178.12,-130.5 178.12,-136.5 172.12,-142.5 166.12,-142.5"/>
<text xml:space="preserve" text-anchor="middle" x="118" y="-126.15" font-family="Helvetica,Arial,sans-serif" font-size="13.00" fill="#111111">Accepted dataset</text>
<text xml:space="preserve" text-anchor="middle" x="118" y="-111.15" font-family="Helvetica,Arial,sans-serif" font-size="13.00" fill="#111111">gender label</text>
</g>
<!-- threshold&#45;&gt;accepted -->
<g id="edge9" class="edge">
<title>threshold&#45;&gt;accepted</title>
<path fill="none" stroke="#2b2d42" stroke-width="1.2" d="M144.99,-206.92C139.61,-190.51 133.02,-170.38 127.7,-154.12"/>
<polygon fill="#2b2d42" stroke="#2b2d42" stroke-width="1.2" points="131.08,-153.21 124.65,-144.79 124.43,-155.39 131.08,-153.21"/>
<text xml:space="preserve" text-anchor="middle" x="144.75" y="-173.05" font-family="Helvetica,Arial,sans-serif" font-size="11.00">yes</text>
</g>
<!-- notsure -->
<g id="node11" class="node">
<title>notsure</title>
<path fill="#f8d7da" stroke="#2b2d42" stroke-width="1.3" d="M274,-142.5C274,-142.5 222,-142.5 222,-142.5 216,-142.5 210,-136.5 210,-130.5 210,-130.5 210,-116.5 210,-116.5 210,-110.5 216,-104.5 222,-104.5 222,-104.5 274,-104.5 274,-104.5 280,-104.5 286,-110.5 286,-116.5 286,-116.5 286,-130.5 286,-130.5 286,-136.5 280,-142.5 274,-142.5"/>
<text xml:space="preserve" text-anchor="middle" x="248" y="-126.15" font-family="Helvetica,Arial,sans-serif" font-size="13.00" fill="#111111">&quot;Not sure&quot;</text>
<text xml:space="preserve" text-anchor="middle" x="248" y="-111.15" font-family="Helvetica,Arial,sans-serif" font-size="13.00" fill="#111111">(abstain)</text>
</g>
<!-- threshold&#45;&gt;notsure -->
<g id="edge10" class="edge">
<title>threshold&#45;&gt;notsure</title>
<path fill="none" stroke="#2b2d42" stroke-width="1.2" d="M176.34,-211.58C191.04,-193.71 210.55,-170 225.5,-151.84"/>
<polygon fill="#2b2d42" stroke="#2b2d42" stroke-width="1.2" points="228.05,-154.25 231.7,-144.31 222.64,-149.81 228.05,-154.25"/>
<text xml:space="preserve" text-anchor="middle" x="215.83" y="-173.05" font-family="Helvetica,Arial,sans-serif" font-size="11.00">no</text>
</g>
<!-- note -->
<g id="node14" class="node">
<title>note</title>
<polygon fill="#fffbe6" stroke="#8a8a8a" stroke-width="1.3" points="441.62,-56 48.37,-56 48.37,0 447.62,0 447.62,-50 441.62,-56"/>
<polyline fill="none" stroke="#8a8a8a" stroke-width="1.3" points="441.62,-56 441.62,-50"/>
<polyline fill="none" stroke="#8a8a8a" stroke-width="1.3" points="447.62,-50 441.62,-50"/>
<text xml:space="preserve" text-anchor="middle" x="248" y="-42.5" font-family="Helvetica,Arial,sans-serif" font-size="10.00" fill="#111111">Softmax, the confidence threshold, and split&#45;conformal calibration of the age</text>
<text xml:space="preserve" text-anchor="middle" x="248" y="-30.5" font-family="Helvetica,Arial,sans-serif" font-size="10.00" fill="#111111">interval are all applied at inference/evaluation time &#45;&#45; not learned inside the network.</text>
<text xml:space="preserve" text-anchor="middle" x="248" y="-18.5" font-family="Helvetica,Arial,sans-serif" font-size="10.00" fill="#111111">Grad&#45;CAM, k&#45;NN comparison, and face detection are separate diagnostic/preprocessing</text>
<text xml:space="preserve" text-anchor="middle" x="248" y="-6.5" font-family="Helvetica,Arial,sans-serif" font-size="10.00" fill="#111111">components, not part of this forward pass.</text>
</g>
<!-- accepted&#45;&gt;note -->
<!-- notsure&#45;&gt;note -->
<!-- age_out -->
<g id="node13" class="node">
<title>age_out</title>
<path fill="#fdebd3" stroke="#2b2d42" stroke-width="1.3" d="M579.62,-150C579.62,-150 330.38,-150 330.38,-150 324.38,-150 318.38,-144 318.38,-138 318.38,-138 318.38,-109 318.38,-109 318.38,-103 324.38,-97 330.38,-97 330.38,-97 579.62,-97 579.62,-97 585.62,-97 591.62,-103 591.62,-109 591.62,-109 591.62,-138 591.62,-138 591.62,-144 585.62,-150 579.62,-150"/>
<text xml:space="preserve" text-anchor="middle" x="455" y="-133.65" font-family="Helvetica,Arial,sans-serif" font-size="13.00" fill="#111111">q10, q50, q90</text>
<text xml:space="preserve" text-anchor="middle" x="455" y="-118.65" font-family="Helvetica,Arial,sans-serif" font-size="13.00" fill="#111111">(safe parameterization: q10 &lt;= q50 &lt;= q90;</text>
<text xml:space="preserve" text-anchor="middle" x="455" y="-103.65" font-family="Helvetica,Arial,sans-serif" font-size="13.00" fill="#111111">clamped to [0, 120] for display)</text>
</g>
<!-- age_head&#45;&gt;age_out -->
<g id="edge12" class="edge">
<title>age_head&#45;&gt;age_out</title>
<path fill="none" stroke="#2b2d42" stroke-width="1.2" d="M450.81,-219.09C451.49,-203.73 452.48,-181.34 453.33,-162.2"/>
<polygon fill="#2b2d42" stroke="#2b2d42" stroke-width="1.2" points="456.82,-162.45 453.77,-152.31 449.83,-162.14 456.82,-162.45"/>
</g>
<!-- age_out&#45;&gt;note -->
</g>
</svg>
